<svg xmlns="http://www.w3.org/2000/svg" viewBox="-40 -60 504 426">
<title>A small starter rack: four colourful modules connected by patch cables</title>
<rect x="-40" y="-60" width="504" height="426" fill="#FFF3C4"/>
<circle cx="347.68" cy="-10" r="120" fill="#FFD23F"/>
<circle cx="-10" cy="346" r="90" fill="#FF5C8A" opacity=".9"/>
<g transform="translate(6 8)"><rect x="1.5" y="1.5" width="421" height="303" rx="14" fill="#121212"/></g>
<rect x="1.5" y="1.5" width="421" height="303" rx="14" fill="#1C1C1C" stroke="#121212" stroke-width="3"/><rect x="8" y="14" width="408" height="10" rx="2" fill="#BFBFBF" stroke="#121212" stroke-width="2"/><rect x="8" y="282" width="408" height="10" rx="2" fill="#BFBFBF" stroke="#121212" stroke-width="2"/><g transform="translate(26 26)"><rect x="1.5" y="1.5" width="97" height="251" rx="6" fill="#FFD23F" stroke="#121212" stroke-width="3"/><circle cx="12" cy="10" r="3.5" fill="#FFFFFF" stroke="#121212" stroke-width="1.5"/><circle cx="88" cy="244" r="3.5" fill="#FFFFFF" stroke="#121212" stroke-width="1.5"/><text x="50" y="28" font-family="'Space Mono', ui-monospace, monospace" font-size="10" font-weight="700" text-anchor="middle" fill="#121212">SEED</text><circle cx="50" cy="62" r="23" fill="#121212" opacity=".18"/><circle cx="50" cy="62" r="20" fill="#1D1D1D"/><circle cx="50" cy="62" r="14.399999999999999" fill="#2C2C2C"/><path d="M50 62 L41.0 46.4" stroke="#FFFFFF" stroke-width="3" stroke-linecap="round"/><circle cx="28" cy="112" r="14" fill="#121212" opacity=".18"/><circle cx="28" cy="112" r="11" fill="#1D1D1D"/><circle cx="28" cy="112" r="7.92" fill="#2C2C2C"/><path d="M28 112 L34.4 104.4" stroke="#FFFFFF" stroke-width="2.2" stroke-linecap="round"/><circle cx="72" cy="112" r="14" fill="#121212" opacity=".18"/><circle cx="72" cy="112" r="11" fill="#1D1D1D"/><circle cx="72" cy="112" r="7.92" fill="#2C2C2C"/><path d="M72 112 L62.7 108.6" stroke="#FFFFFF" stroke-width="2.2" stroke-linecap="round"/><circle cx="50" cy="140" r="3.6" fill="#FF2E63" stroke="#121212" stroke-width="1.5"/><circle cx="24" cy="172" r="7.5" fill="#D9D9D9" stroke="#121212" stroke-width="2"/><circle cx="24" cy="172" r="3.6" fill="#121212"/><circle cx="50" cy="172" r="7.5" fill="#D9D9D9" stroke="#121212" stroke-width="2"/><circle cx="50" cy="172" r="3.6" fill="#121212"/><circle cx="76" cy="172" r="7.5" fill="#D9D9D9" stroke="#121212" stroke-width="2"/><circle cx="76" cy="172" r="3.6" fill="#121212"/><circle cx="24" cy="206" r="7.5" fill="#D9D9D9" stroke="#121212" stroke-width="2"/><circle cx="24" cy="206" r="3.6" fill="#121212"/><circle cx="50" cy="206" r="7.5" fill="#D9D9D9" stroke="#121212" stroke-width="2"/><circle cx="50" cy="206" r="3.6" fill="#121212"/><circle cx="76" cy="206" r="7.5" fill="#D9D9D9" stroke="#121212" stroke-width="2"/><circle cx="76" cy="206" r="3.6" fill="#121212"/><path d="M10 228 H90" stroke="#121212" stroke-width="1.5" opacity=".35"/></g><g transform="translate(130 26)"><rect x="1.5" y="1.5" width="117" height="251" rx="6" fill="#FF5C8A" stroke="#121212" stroke-width="3"/><circle cx="12" cy="10" r="3.5" fill="#FFFFFF" stroke="#121212" stroke-width="1.5"/><circle cx="108" cy="244" r="3.5" fill="#FFFFFF" stroke="#121212" stroke-width="1.5"/><text x="60" y="28" font-family="'Space Mono', ui-monospace, monospace" font-size="10" font-weight="700" text-anchor="middle" fill="#121212">BLOOM</text><circle cx="60" cy="70" r="30" fill="#121212" opacity=".18"/><circle cx="60" cy="70" r="27" fill="#1D1D1D"/><circle cx="60" cy="70" r="19.439999999999998" fill="#2C2C2C"/><path d="M60 70 L68.3 47.2" stroke="#FFFFFF" stroke-width="3" stroke-linecap="round"/><circle cx="30" cy="124" r="14" fill="#121212" opacity=".18"/><circle cx="30" cy="124" r="11" fill="#1D1D1D"/><circle cx="30" cy="124" r="7.92" fill="#2C2C2C"/><path d="M30 124 L21.4 119.0" stroke="#FFFFFF" stroke-width="2.2" stroke-linecap="round"/><circle cx="90" cy="124" r="14" fill="#121212" opacity=".18"/><circle cx="90" cy="124" r="11" fill="#1D1D1D"/><circle cx="90" cy="124" r="7.92" fill="#2C2C2C"/><path d="M90 124 L97.6 117.6" stroke="#FFFFFF" stroke-width="2.2" stroke-linecap="round"/><rect x="53" y="112" width="14" height="24" rx="3" fill="#121212"/><rect x="56" y="115" width="8" height="9" rx="2" fill="#E6E6E6"/><circle cx="30" cy="176" r="7.5" fill="#D9D9D9" stroke="#121212" stroke-width="2"/><circle cx="30" cy="176" r="3.6" fill="#121212"/><circle cx="60" cy="176" r="7.5" fill="#D9D9D9" stroke="#121212" stroke-width="2"/><circle cx="60" cy="176" r="3.6" fill="#121212"/><circle cx="90" cy="176" r="7.5" fill="#D9D9D9" stroke="#121212" stroke-width="2"/><circle cx="90" cy="176" r="3.6" fill="#121212"/><circle cx="30" cy="210" r="7.5" fill="#D9D9D9" stroke="#121212" stroke-width="2"/><circle cx="30" cy="210" r="3.6" fill="#121212"/><circle cx="60" cy="210" r="7.5" fill="#D9D9D9" stroke="#121212" stroke-width="2"/><circle cx="60" cy="210" r="3.6" fill="#121212"/><circle cx="90" cy="210" r="7.5" fill="#D9D9D9" stroke="#121212" stroke-width="2"/><circle cx="90" cy="210" r="3.6" fill="#121212"/><path d="M10 228 H110" stroke="#121212" stroke-width="1.5" opacity=".35"/></g><g transform="translate(254 26)"><rect x="1.5" y="1.5" width="57" height="251" rx="6" fill="#9BE564" stroke="#121212" stroke-width="3"/><circle cx="12" cy="10" r="3.5" fill="#FFFFFF" stroke="#121212" stroke-width="1.5"/><circle cx="48" cy="244" r="3.5" fill="#FFFFFF" stroke="#121212" stroke-width="1.5"/><text x="30" y="28" font-family="'Space Mono', ui-monospace, monospace" font-size="10" font-weight="700" text-anchor="middle" fill="#121212">ROOT</text><circle cx="30" cy="60" r="16" fill="#121212" opacity=".18"/><circle cx="30" cy="60" r="13" fill="#1D1D1D"/><circle cx="30" cy="60" r="9.36" fill="#2C2C2C"/><path d="M30 60 L40.1 54.1" stroke="#FFFFFF" stroke-width="3" stroke-linecap="round"/><circle cx="30" cy="104" r="13" fill="#121212" opacity=".18"/><circle cx="30" cy="104" r="10" fill="#1D1D1D"/><circle cx="30" cy="104" r="7.199999999999999" fill="#2C2C2C"/><path d="M30 104 L26.9 95.5" stroke="#FFFFFF" stroke-width="2.2" stroke-linecap="round"/><circle cx="20" cy="134" r="3.6" fill="#2EC4F1" stroke="#121212" stroke-width="1.5"/><circle cx="40" cy="134" r="3.6" fill="#FF2E63" stroke="#121212" stroke-width="1.5"/><circle cx="30" cy="170" r="7.5" fill="#D9D9D9" stroke="#121212" stroke-width="2"/><circle cx="30" cy="170" r="3.6" fill="#121212"/><circle cx="30" cy="202" r="7.5" fill="#D9D9D9" stroke="#121212" stroke-width="2"/><circle cx="30" cy="202" r="3.6" fill="#121212"/><path d="M10 228 H50" stroke="#121212" stroke-width="1.5" opacity=".35"/></g><g transform="translate(318 26)"><rect x="1.5" y="1.5" width="77" height="251" rx="6" fill="#9B7BFF" stroke="#121212" stroke-width="3"/><circle cx="12" cy="10" r="3.5" fill="#FFFFFF" stroke="#121212" stroke-width="1.5"/><circle cx="68" cy="244" r="3.5" fill="#FFFFFF" stroke="#121212" stroke-width="1.5"/><text x="40" y="28" font-family="'Space Mono', ui-monospace, monospace" font-size="10" font-weight="700" text-anchor="middle" fill="#121212">CANOPY</text><rect x="11.5" y="40" width="5" height="96" rx="2.5" fill="#121212"/><rect x="7" y="62" width="14" height="10" rx="2" fill="#F5F5F5" stroke="#121212" stroke-width="2"/><rect x="28.833333333333332" y="40" width="5" height="96" rx="2.5" fill="#121212"/><rect x="24.333333333333332" y="90" width="14" height="10" rx="2" fill="#F5F5F5" stroke="#121212" stroke-width="2"/><rect x="46.166666666666664" y="40" width="5" height="96" rx="2.5" fill="#121212"/><rect x="41.666666666666664" y="74" width="14" height="10" rx="2" fill="#F5F5F5" stroke="#121212" stroke-width="2"/><rect x="63.5" y="40" width="5" height="96" rx="2.5" fill="#121212"/><rect x="59" y="102" width="14" height="10" rx="2" fill="#F5F5F5" stroke="#121212" stroke-width="2"/><circle cx="18" cy="166" r="7.5" fill="#D9D9D9" stroke="#121212" stroke-width="2"/><circle cx="18" cy="166" r="3.6" fill="#121212"/><circle cx="40" cy="166" r="7.5" fill="#D9D9D9" stroke="#121212" stroke-width="2"/><circle cx="40" cy="166" r="3.6" fill="#121212"/><circle cx="62" cy="166" r="7.5" fill="#D9D9D9" stroke="#121212" stroke-width="2"/><circle cx="62" cy="166" r="3.6" fill="#121212"/><circle cx="29" cy="198" r="7.5" fill="#D9D9D9" stroke="#121212" stroke-width="2"/><circle cx="29" cy="198" r="3.6" fill="#121212"/><circle cx="51" cy="198" r="7.5" fill="#D9D9D9" stroke="#121212" stroke-width="2"/><circle cx="51" cy="198" r="3.6" fill="#121212"/><path d="M10 228 H70" stroke="#121212" stroke-width="1.5" opacity=".35"/></g><path d="M76 232 C76 302 160 272 160 202" stroke="#121212" stroke-width="9" fill="none" stroke-linecap="round"/><path class="cable" d="M76 232 C76 302 160 272 160 202" stroke="#FF2E63" stroke-width="5.5" fill="none" stroke-linecap="round"/><circle cx="76" cy="232" r="5" fill="#FF2E63" stroke="#121212" stroke-width="2"/><circle cx="160" cy="202" r="5" fill="#FF2E63" stroke="#121212" stroke-width="2"/><path d="M284 228 C284 278 190 252 190 202" stroke="#121212" stroke-width="9" fill="none" stroke-linecap="round"/><path class="cable" d="M284 228 C284 278 190 252 190 202" stroke="#2EC4F1" stroke-width="5.5" fill="none" stroke-linecap="round"/><circle cx="284" cy="228" r="5" fill="#2EC4F1" stroke="#121212" stroke-width="2"/><circle cx="190" cy="202" r="5" fill="#2EC4F1" stroke="#121212" stroke-width="2"/><path d="M190 236 C190 316 336 272 336 192" stroke="#121212" stroke-width="9" fill="none" stroke-linecap="round"/><path class="cable" d="M190 236 C190 316 336 272 336 192" stroke="#FFD23F" stroke-width="5.5" fill="none" stroke-linecap="round"/><circle cx="190" cy="236" r="5" fill="#FFD23F" stroke="#121212" stroke-width="2"/><circle cx="336" cy="192" r="5" fill="#FFD23F" stroke="#121212" stroke-width="2"/><path d="M284 196 C284 236 76 238 76 198" stroke="#121212" stroke-width="9" fill="none" stroke-linecap="round"/><path class="cable" d="M284 196 C284 236 76 238 76 198" stroke="#9BE564" stroke-width="5.5" fill="none" stroke-linecap="round"/><circle cx="284" cy="196" r="5" fill="#9BE564" stroke="#121212" stroke-width="2"/><circle cx="76" cy="198" r="5" fill="#9BE564" stroke="#121212" stroke-width="2"/>
</svg>
